<svg width="1575" height="206" viewBox="0 0 1575 206" fill="none" xmlns="http://www.w3.org/2000/svg">
<g filter="url(#filter0_d_35_14)">
<path id="line1" d="M1564 197C1565.1 197 1566 196.105 1566 195C1566 193.895 1565.1 193 1564 193V197ZM1564 193L622 193V197L1564 197V193Z" fill="#999D9C"/>
<path id="line2" d="M621 196.732C621.957 197.284 623.18 196.956 623.732 196C624.284 195.043 623.956 193.82 623 193.268L621 196.732ZM623 193.268L452.714 95.0043L450.715 98.4689L621 196.732L623 193.268Z" fill="#999D9C"/>
<path id="line3" d="M451.994 99C453.098 99.0035 453.996 98.1109 454 97.0063C454.003 95.9018 453.111 95.0035 452.006 95L451.994 99ZM452.006 95L136.006 94L135.994 98L451.994 99L452.006 95Z" fill="#999D9C"/>
<path id="line4" d="M134.851 97.6373C135.756 98.2716 137.003 98.0528 137.637 97.1486C138.272 96.2443 138.053 94.997 137.149 94.3627L134.851 97.6373ZM137.149 94.3627L3.14857 0.362686L0.851441 3.63732L134.851 97.6373L137.149 94.3627Z" fill="#999D9C"/>
</g>
<defs>
<filter id="filter0_d_35_14" x="0.85144" y="0.362686" width="1574.15" height="205.638" filterUnits="userSpaceOnUse" color-interpolation-filters="sRGB">
<feFlood flood-opacity="0" result="BackgroundImageFix"/>
<feColorMatrix in="SourceAlpha" type="matrix" values="0 0 0 0 0 0 0 0 0 0 0 0 0 0 0 0 0 0 127 0" result="hardAlpha"/>
<feOffset dx="5" dy="5"/>
<feGaussianBlur stdDeviation="2"/>
<feComposite in2="hardAlpha" operator="out"/>
<feColorMatrix type="matrix" values="0 0 0 0 0 0 0 0 0 0 0 0 0 0 0 0 0 0 0.25 0"/>
<feBlend mode="normal" in2="BackgroundImageFix" result="effect1_dropShadow_35_14"/>
<feBlend mode="normal" in="SourceGraphic" in2="effect1_dropShadow_35_14" result="shape"/>
</filter>
</defs>
</svg>
