<svg width="53" height="44" viewBox="0 0 53 44" fill="none" xmlns="http://www.w3.org/2000/svg">
<path d="M14 0.5C13.1716 0.5 12.5 1.17157 12.5 2C12.5 2.82843 13.1716 3.5 14 3.5V0.5ZM14 3.5L42 3.5V0.5L14 0.5V3.5Z" fill="#F4FFFC"/>
<path d="M0.827389 16.1073C0.310773 16.7549 0.416964 17.6987 1.06457 18.2153C1.71218 18.732 2.65598 18.6258 3.17259 17.9782L0.827389 16.1073ZM12.8274 1.06458L0.827389 16.1073L3.17259 17.9782L15.1726 2.93542L12.8274 1.06458Z" fill="#F4FFFC"/>
<path d="M3.50009 17.0427C3.50009 16.2143 2.82852 15.5427 2.00009 15.5427C1.17166 15.5427 0.500092 16.2143 0.500092 17.0427H3.50009ZM0.500092 17.0427L0.500092 42H3.50009L3.50009 17.0427H0.500092Z" fill="#F4FFFC"/>
<path d="M2.00009 40.5C1.17166 40.5 0.500092 41.1716 0.500092 42C0.500092 42.8284 1.17166 43.5 2.00009 43.5V40.5ZM2.00009 43.5H39.9659V40.5H2.00009V43.5Z" fill="#F4FFFC"/>
<path d="M38.8221 41.0293C38.286 41.6609 38.3634 42.6075 38.995 43.1436C39.6266 43.6797 40.5732 43.6023 41.1093 42.9707L38.8221 41.0293ZM41.1093 42.9707L52.1436 29.9707L49.8564 28.0293L38.8221 41.0293L41.1093 42.9707Z" fill="#F4FFFC"/>
<path d="M52.5 10C52.5 9.17157 51.8284 8.5 51 8.5C50.1716 8.5 49.5 9.17157 49.5 10H52.5ZM52.5 30.1709V10H49.5V30.1709H52.5Z" fill="#F4FFFC"/>
<path d="M43.5098 0.906666C42.9059 0.3395 41.9566 0.369224 41.3895 0.973057C40.8223 1.57689 40.852 2.52617 41.4559 3.09334L43.5098 0.906666ZM52.0269 8.90666L43.5098 0.906666L41.4559 3.09334L49.9731 11.0933L52.0269 8.90666Z" fill="#F4FFFC"/>
</svg>
