<svg width="105" height="54" viewBox="0 0 105 54" fill="none" xmlns="http://www.w3.org/2000/svg">
<g filter="url(#filter0_d_45_55)">
<path d="M13.8926 0.5C13.0642 0.5 12.3926 1.17157 12.3926 2C12.3926 2.82843 13.0642 3.5 13.8926 3.5V0.5ZM13.8926 3.5L88.6145 3.5V0.5L13.8926 0.5V3.5Z" fill="#F4FFFC"/>
<path d="M1.28227 15.7256C0.768493 16.3754 0.673319 17.492 1.06969 18.2194C1.46607 18.9469 2.2039 19.0098 2.71767 18.3599L1.28227 15.7256ZM13.1749 0.682842L1.28227 15.7256L2.71767 18.3599L14.6103 3.31716L13.1749 0.682842Z" fill="#F4FFFC"/>
<path d="M3.50012 17.0427C3.50012 16.2143 2.82855 15.5427 2.00012 15.5427C1.17169 15.5427 0.500122 16.2143 0.500122 17.0427H3.50012ZM0.500122 17.0427L0.500122 42H3.50012L3.50012 17.0427H0.500122Z" fill="#F4FFFC"/>
<path d="M2.00012 40.5C1.17169 40.5 0.500122 41.1716 0.500122 42C0.500122 42.8284 1.17169 43.5 2.00012 43.5V40.5ZM2.00012 43.5H83.2293V40.5H2.00012V43.5Z" fill="#F4FFFC"/>
<path d="M82.5668 40.6542C82.0212 41.2776 81.8755 42.3855 82.2414 43.1288C82.6073 43.8721 83.3462 43.9692 83.8917 43.3458L82.5668 40.6542ZM83.8917 43.3458L94.6624 31.0381L93.3375 28.3465L82.5668 40.6542L83.8917 43.3458Z" fill="#F4FFFC"/>
<path d="M95.5 9.52137C95.5 8.69294 94.8284 8.02137 94 8.02137C93.1716 8.02137 92.5 8.69294 92.5 9.52137H95.5ZM95.5 29.6923V9.52137H92.5V29.6923H95.5Z" fill="#F4FFFC"/>
<path d="M89.3879 0.714697C88.9057 0.0411272 88.1685 0.070542 87.7414 0.780397C87.3143 1.49025 87.3591 2.61174 87.8413 3.28531L89.3879 0.714697ZM94.7733 8.23606L89.3879 0.714697L87.8413 3.28531L93.2267 10.8067L94.7733 8.23606Z" fill="#F4FFFC"/>
</g>
<defs>
<filter id="filter0_d_45_55" x="0.500122" y="0.228149" width="104" height="53.5284" filterUnits="userSpaceOnUse" color-interpolation-filters="sRGB">
<feFlood flood-opacity="0" result="BackgroundImageFix"/>
<feColorMatrix in="SourceAlpha" type="matrix" values="0 0 0 0 0 0 0 0 0 0 0 0 0 0 0 0 0 0 127 0" result="hardAlpha"/>
<feOffset dx="5" dy="6"/>
<feGaussianBlur stdDeviation="2"/>
<feComposite in2="hardAlpha" operator="out"/>
<feColorMatrix type="matrix" values="0 0 0 0 0.345098 0 0 0 0 0.290196 0 0 0 0 0.290196 0 0 0 0.5 0"/>
<feBlend mode="normal" in2="BackgroundImageFix" result="effect1_dropShadow_45_55"/>
<feBlend mode="normal" in="SourceGraphic" in2="effect1_dropShadow_45_55" result="shape"/>
</filter>
</defs>
</svg>
